<svg width="44" height="43" viewBox="0 0 44 43" fill="none" xmlns="http://www.w3.org/2000/svg">
<path d="M7.8125 8.375V13.0625H4.6875V8.375H0V5.25H4.6875V0.5625H7.8125V5.25H12.5V8.375H7.8125ZM31.9062 36.5156L41.3281 27.0938C44.5469 23.875 44.5469 18.6719 41.3281 15.4688C38.1094 12.2656 32.9062 12.25 29.7031 15.4688L31.9062 17.6719C32.8656 16.7185 34.1631 16.1834 35.5156 16.1834C36.8681 16.1834 38.1657 16.7185 39.125 17.6719C40.0784 18.6312 40.6135 19.9288 40.6135 21.2812C40.6135 22.6337 40.0784 23.9313 39.125 24.8906L29.7031 34.3125C28.7438 35.2659 27.4462 35.801 26.0938 35.801C24.7413 35.801 23.4437 35.2659 22.4844 34.3125C21.531 33.3532 20.9959 32.0556 20.9959 30.7031C20.9959 29.3506 21.531 28.0531 22.4844 27.0938L20.2812 24.8906C18.7344 26.4375 17.875 28.5312 17.875 30.7187C17.875 35.2656 21.5625 38.9375 26.1094 38.9375C28.2969 38.9375 30.3906 38.0781 31.9219 36.5312L31.9062 36.5156ZM18.7344 40.3438L16.5312 38.1406C15.5747 39.0872 14.2832 39.6181 12.9375 39.6181C11.5918 39.6181 10.3003 39.0872 9.34375 38.1406C8.38354 37.1869 7.84096 35.8911 7.8351 34.5377C7.82924 33.1843 8.36058 31.8839 9.3125 30.9219L18.7344 21.5L18.7656 21.4687C20.7656 19.4844 24 19.5 25.9844 21.5C27.9687 23.5 27.9531 26.7344 25.9531 28.7188L28.1562 30.9219L28.2031 30.875C28.9635 30.1087 29.5655 29.2001 29.9747 28.2011C30.3839 27.2021 30.5922 26.1323 30.5879 25.0528C30.5835 23.9733 30.3666 22.9052 29.9493 21.9095C29.5321 20.9138 28.9228 20.0101 28.1562 19.25C27.39 18.4896 26.4814 17.8876 25.4824 17.4784C24.4834 17.0692 23.4136 16.8609 22.334 16.8652C21.2545 16.8696 20.1864 17.0866 19.1907 17.5038C18.1951 17.921 17.2914 18.5303 16.5312 19.2969L7.10938 28.7188C5.5639 30.2589 4.69284 32.3494 4.6875 34.5312C4.6875 39.0781 8.39063 42.75 12.9219 42.75C15.1094 42.75 17.2031 41.8906 18.7344 40.3438Z" fill="#00FF66"/>
</svg>
