<svg width="44" height="44" viewBox="0 0 44 44" fill="none" xmlns="http://www.w3.org/2000/svg">
<path d="M3.125 28.125V31.25H10.2906L0 41.5406L2.20938 43.75L12.5 33.4594V40.625H15.625V28.125H3.125ZM34.375 29.6875H37.5V37.5H34.375V29.6875ZM28.125 21.875H31.25V37.5H28.125V21.875ZM21.875 25H25V37.5H21.875V25Z" fill="#00FF66"/>
<path d="M40.625 0H3.125C2.2962 0 1.50134 0.32924 0.915291 0.915291C0.32924 1.50134 0 2.2962 0 3.125V21.875H3.125V17.1875H40.6266L40.6281 40.625H21.875V43.75H40.625C41.4534 43.7488 42.2476 43.4191 42.8333 42.8333C43.4191 42.2476 43.7488 41.4534 43.75 40.625V3.125C43.75 2.2962 43.4208 1.50134 42.8347 0.915291C42.2487 0.32924 41.4538 0 40.625 0ZM15.625 14.0625H3.125V3.125H15.625V14.0625ZM18.75 14.0625V3.125H40.625V14.0625H18.75Z" fill="#00FF66"/>
</svg>
