<svg width="44" height="43" viewBox="0 0 44 43" fill="none" xmlns="http://www.w3.org/2000/svg">
<path fill-rule="evenodd" clip-rule="evenodd" d="M21.875 0.00013066C16.6817 0.000829566 11.6581 1.84916 7.70269 5.2145C3.74731 8.57983 1.11826 13.2426 0.285823 18.3688C-0.546614 23.4949 0.471868 28.7501 3.15908 33.1941C5.84629 37.6381 10.0269 40.9811 14.9532 42.6251C16.0469 42.8283 16.5157 42.1564 16.5157 41.5783V37.8595C10.4375 39.172 9.15628 34.922 9.15628 34.922C8.73015 33.582 7.83024 32.4432 6.62503 31.7189C4.64066 30.3751 6.78128 30.3908 6.78128 30.3908C7.47442 30.4887 8.136 30.7437 8.71552 31.1364C9.29503 31.529 9.77714 32.0489 10.125 32.6564C10.7303 33.7419 11.7418 34.5426 12.9373 34.8825C14.1327 35.2224 15.4142 35.0736 16.5 34.4689C16.5883 33.3602 17.077 32.3216 17.875 31.547C13.0313 30.9845 7.92191 29.1095 7.92191 20.7345C7.88648 18.5593 8.69257 16.4546 10.1719 14.8595C9.50232 12.9754 9.58061 10.9063 10.3907 9.07826C10.3907 9.07826 12.2188 8.48451 16.4063 11.3126C19.9867 10.336 23.7634 10.336 27.3438 11.3126C31.5157 8.48451 33.3438 9.07826 33.3438 9.07826C34.1538 10.9063 34.2321 12.9754 33.5625 14.8595C35.0419 16.4546 35.848 18.5593 35.8125 20.7345C35.8125 29.1408 30.7032 30.9845 25.8282 31.5314C26.3504 32.0607 26.7531 32.6958 27.0091 33.3939C27.2652 34.092 27.3686 34.8368 27.3125 35.5783V41.5783C27.3125 42.297 27.7032 42.8439 28.875 42.6251C33.8077 40.9791 37.9927 37.6296 40.6795 33.1774C43.3663 28.7252 44.3791 23.4615 43.5365 18.3301C42.6938 13.1987 40.0507 8.53541 36.0811 5.17633C32.1115 1.81726 27.0751 -0.0178341 21.875 0.00013066Z" fill="#00FF66"/>
</svg>
