<svg width="44" height="44" viewBox="0 0 44 44" fill="none" xmlns="http://www.w3.org/2000/svg">
<path d="M21.875 0C17.5485 0 13.3192 1.28295 9.72191 3.6866C6.12459 6.09026 3.32081 9.50667 1.66514 13.5038C0.00947807 17.5009 -0.42372 21.8993 0.420332 26.1426C1.26438 30.3859 3.34777 34.2837 6.40705 37.343C9.46632 40.4022 13.3641 42.4856 17.6074 43.3297C21.8507 44.1737 26.2491 43.7405 30.2462 42.0849C34.2433 40.4292 37.6598 37.6254 40.0634 34.0281C42.4671 30.4308 43.75 26.2015 43.75 21.875C43.75 16.0734 41.4453 10.5094 37.343 6.40704C33.2406 2.30468 27.6766 0 21.875 0ZM40.625 20.3125H31.25C31.0676 14.5579 29.5768 8.92055 26.8906 3.82812C30.5915 4.84047 33.8928 6.96382 36.3488 9.9116C38.8048 12.8594 40.2974 16.4897 40.625 20.3125ZM21.875 40.625C21.5264 40.6484 21.1767 40.6484 20.8281 40.625C17.5911 35.4628 15.7946 29.5283 15.625 23.4375H28.125C27.9696 29.5239 26.1893 35.4581 22.9688 40.625C22.6046 40.6506 22.2391 40.6506 21.875 40.625ZM15.625 20.3125C15.7805 14.2261 17.5607 8.29191 20.7813 3.125C21.477 3.04682 22.1793 3.04682 22.875 3.125C26.1286 8.28249 27.9414 14.2173 28.125 20.3125H15.625ZM16.8125 3.82812C14.1427 8.92445 12.6679 14.5616 12.5 20.3125H3.12501C3.45267 16.4897 4.94523 12.8594 7.40125 9.9116C9.85726 6.96382 13.1585 4.84047 16.8594 3.82812H16.8125ZM3.20314 23.4375H12.5781C12.7412 29.1871 14.2106 34.8243 16.875 39.9219C13.1857 38.8987 9.8981 36.7706 7.454 33.8237C5.0099 30.8768 3.52649 27.2524 3.20314 23.4375ZM26.8906 39.9219C29.5768 34.8294 31.0676 29.1921 31.25 23.4375H40.625C40.2974 27.2603 38.8048 30.8906 36.3488 33.8384C33.8928 36.7862 30.5915 38.9095 26.8906 39.9219Z" fill="#00FF66"/>
</svg>
