<svg width="32" height="44" viewBox="0 0 32 44" fill="none" xmlns="http://www.w3.org/2000/svg">
<path d="M15.875 3.125C17.4202 3.125 18.9306 3.58319 20.2154 4.44164C21.5002 5.30009 22.5015 6.52024 23.0928 7.94779C23.6841 9.37533 23.8388 10.9462 23.5374 12.4616C23.2359 13.9771 22.4919 15.3692 21.3993 16.4618C20.3067 17.5544 18.9146 18.2984 17.3991 18.5999C15.8837 18.9013 14.3128 18.7466 12.8853 18.1553C11.4577 17.564 10.2376 16.5627 9.37914 15.2779C8.5207 13.9931 8.0625 12.4827 8.0625 10.9375C8.0625 8.8655 8.8856 6.87836 10.3507 5.41323C11.8159 3.9481 13.803 3.125 15.875 3.125ZM15.875 0C13.7118 0 11.5971 0.641473 9.79845 1.8433C7.99979 3.04513 6.5979 4.75333 5.77007 6.7519C4.94223 8.75047 4.72564 10.9496 5.14766 13.0713C5.56969 15.193 6.61138 17.1418 8.14102 18.6715C9.67066 20.2011 11.6195 21.2428 13.7412 21.6648C15.8629 22.0869 18.062 21.8703 20.0606 21.0424C22.0592 20.2146 23.7674 18.8127 24.9692 17.014C26.171 15.2154 26.8125 13.1007 26.8125 10.9375C26.8125 8.03669 25.6602 5.2547 23.609 3.20352C21.5578 1.15234 18.7758 0 15.875 0ZM31.5 43.75H28.375V35.9375C28.375 34.9115 28.1729 33.8956 27.7803 32.9478C27.3877 31.9999 26.8122 31.1387 26.0868 30.4132C25.3613 29.6878 24.5001 29.1123 23.5522 28.7197C22.6044 28.3271 21.5885 28.125 20.5625 28.125H11.1875C9.1155 28.125 7.12836 28.9481 5.66323 30.4132C4.1981 31.8784 3.375 33.8655 3.375 35.9375V43.75H0.25V35.9375C0.25 33.0367 1.40234 30.2547 3.45352 28.2035C5.5047 26.1523 8.28669 25 11.1875 25H20.5625C23.4633 25 26.2453 26.1523 28.2965 28.2035C30.3477 30.2547 31.5 33.0367 31.5 35.9375V43.75Z" fill="#00FF66"/>
</svg>
