<svg width="56" height="70" viewBox="0 0 56 70" fill="none" xmlns="http://www.w3.org/2000/svg">
<path d="M35.5 55V60H20.5V55H35.5Z" fill="#00FF66"/>
<path d="M50.5 70H5.5C4.17392 70 2.90215 69.4732 1.96447 68.5355C1.02678 67.5979 0.5 66.3261 0.5 65V5C0.5 3.67392 1.02678 2.40215 1.96447 1.46447C2.90215 0.526784 4.17392 0 5.5 0H50.5C51.8261 0 53.0979 0.526784 54.0355 1.46447C54.9732 2.40215 55.5 3.67392 55.5 5V65C55.498 66.3255 54.9706 67.5961 54.0333 68.5333C53.0961 69.4706 51.8255 69.998 50.5 70ZM5.5 5V65H50.5V5H5.5Z" fill="#00FF66"/>
</svg>
