<svg width="43" height="44" viewBox="0 0 43 44" fill="none" xmlns="http://www.w3.org/2000/svg">
<path d="M13.0625 23.4375C14.3569 23.4375 15.4062 22.3882 15.4062 21.0938C15.4062 19.7993 14.3569 18.75 13.0625 18.75C11.7681 18.75 10.7188 19.7993 10.7188 21.0938C10.7188 22.3882 11.7681 23.4375 13.0625 23.4375Z" fill="#00FF66"/>
<path d="M14.625 15.625H11.5V9.375H14.625C15.4538 9.375 16.2487 9.04576 16.8347 8.45971C17.4208 7.87366 17.75 7.0788 17.75 6.25C17.75 5.4212 17.4208 4.62634 16.8347 4.04029C16.2487 3.45424 15.4538 3.125 14.625 3.125H11.5C10.6712 3.125 9.87634 3.45424 9.29029 4.04029C8.70424 4.62634 8.375 5.4212 8.375 6.25V7.03125H5.25V6.25C5.25207 4.59303 5.91121 3.00452 7.08287 1.83287C8.25452 0.661211 9.84303 0.00206734 11.5 0H14.625C16.2826 0 17.8723 0.65848 19.0444 1.83058C20.2165 3.00269 20.875 4.5924 20.875 6.25C20.875 7.9076 20.2165 9.49732 19.0444 10.6694C17.8723 11.8415 16.2826 12.5 14.625 12.5V15.625Z" fill="#00FF66"/>
<path d="M30.95 29.7407C32.5134 27.8703 33.6599 25.6879 34.3128 23.3392C34.9658 20.9905 35.1102 18.5295 34.7365 16.1205C34.3628 13.7115 33.4796 11.41 32.1458 9.3695C30.8119 7.32899 29.0582 5.59648 27.0016 4.2876L25.4406 6.99072C27.4782 8.3235 29.1346 10.1626 30.2478 12.328C31.361 14.4933 31.8927 16.9106 31.7908 19.3432C31.689 21.7758 30.9571 24.1403 29.6669 26.205C28.3766 28.2697 26.5723 29.964 24.4305 31.1218C22.2887 32.2796 19.8829 32.8613 17.4487 32.8099C15.0145 32.7586 12.6354 32.0759 10.5444 30.8287C8.45332 29.5816 6.72203 27.8127 5.52005 25.6954C4.31807 23.578 3.68661 21.1848 3.6875 18.7501H0.562505C0.560139 22.0164 1.48924 25.2157 3.24081 27.9727C4.99239 30.7297 7.49382 32.93 10.4517 34.3156C13.4096 35.7012 16.7012 36.2146 19.9406 35.7957C23.1799 35.3767 26.2326 34.0427 28.7406 31.9501L40.5406 43.7501L42.75 41.5407L30.95 29.7407Z" fill="#00FF66"/>
</svg>
